#!OML:ASF E:\Style4\Style4.ASF
:FULLY-SPECIFIED
:DEGREES
1109
root -0.69072 17.5962 -1.46832 2.83077 13.1767 6.21525
lowerback 10.6249 5.06924 1.5058
upperback 6.68717 6.87396 -0.448162
thorax 1.28303 3.51963 -1.92195
lowerneck 5.16754 -10.3208 -4.92511
upperneck 3.43683 -13.9944 4.10899
head 0.89116 -7.03162 2.13731
rclavicle -5.1684e-014 2.54444e-014
rhumerus 46.9577 -9.72641 -6.50148
rradius 53.8278
rwrist -26.9014
rhand 5.72629 9.66658
rfingers 7.12502
rthumb 31.0625 -17.723
lclavicle -5.1684e-014 2.54444e-014
lhumerus 47.0273 24.0305 -3.40194
lradius 79.6097
lwrist 31.5466
lhand 13.1043 25.1898
lfingers 7.12502
lthumb 38.0643 50.9715
rfemur -21.1036 -9.92087 14.9291
rtibia 41.5397
rfoot -21.7366 -20.3463
rtoes -3.7618
lfemur -20.8824 -3.43755 -22.3807
ltibia 32.5692
lfoot -12.1633 2.22719
ltoes -16.777
1110
root -0.65779 17.6231 -1.47105 2.82121 12.6499 6.26663
lowerback 10.6042 4.98967 1.5132
upperback 6.56578 6.76652 -0.309009
thorax 1.14513 3.45899 -1.78043
lowerneck 4.96161 -10.2078 -4.7795
upperneck 3.66627 -13.8207 3.48455
head 0.929363 -6.94095 1.90135
rclavicle 2.0276e-014 -4.6118e-014
rhumerus 47.351 -9.52396 -6.68128
rradius 53.8967
rwrist -26.8996
rhand 5.6959 9.61772
rfingers 7.12502
rthumb 31.0335 -17.7774
lclavicle 2.0276e-014 -4.6118e-014
lhumerus 47.4432 24.3369 -3.18491
lradius 79.1379
lwrist 31.3382
lhand 13.1358 25.2075
lfingers 7.12502
lthumb 38.0941 50.981
rfemur -20.8508 -9.51113 14.7447
rtibia 40.9471
rfoot -21.4432 -20.1984
rtoes -3.53332
lfemur -20.4535 -3.29332 -22.5374
ltibia 31.9644
lfoot -11.9326 2.64584
ltoes -17.2888
1111
root -0.62055 17.6488 -1.47004 2.83813 12.0801 6.27627
lowerback 10.4616 4.90954 1.57813
upperback 6.47148 6.66251 -0.164838
thorax 1.10846 3.40316 -1.65167
lowerneck 4.84241 -10.1132 -4.62311
upperneck 3.79512 -13.6737 2.94453
head 0.929477 -6.86515 1.69989
rclavicle -1.55052e-014 -7.95139e-015
rhumerus 47.7122 -9.3454 -6.78861
rradius 54.0041
rwrist -26.9947
rhand 5.56958 9.46077
rfingers 7.12502
rthumb 30.9131 -17.9572
lclavicle -1.55052e-014 -7.95139e-015
lhumerus 47.9701 24.649 -2.82562
lradius 78.6435
lwrist 31.0198
lhand 13.2577 25.2413
lfingers 7.12502
lthumb 38.2092 50.9833
rfemur -20.6481 -9.14665 14.5929
rtibia 40.3717
rfoot -21.0588 -20.0795
rtoes -3.75899
lfemur -20.0419 -3.104 -22.6771
ltibia 31.3622
lfoot -11.7694 2.9991
ltoes -17.3595
1112
root -0.578142 17.6766 -1.46052 2.84637 11.4448 6.41636
lowerback 10.2494 4.83803 1.51007
upperback 6.41385 6.55822 -0.049241
thorax 1.13658 3.34516 -1.47109
lowerneck 4.76542 -10.008 -4.56231
upperneck 3.94059 -13.5199 2.50894
head 0.943723 -6.78794 1.54875
rclavicle -8.42847e-014 2.54444e-014
rhumerus 48.1006 -9.17373 -6.92931
rradius 54.1084
rwrist -27.0364
rhand 5.57642 9.78617
rfingers 7.12502
rthumb 30.9196 -17.6306
lclavicle -8.42847e-014 2.54444e-014
lhumerus 48.4464 24.8732 -2.56118
lradius 78.117
lwrist 30.7478
lhand 13.2342 25.3496
lfingers 7.12502
lthumb 38.187 51.0977
rfemur -20.3543 -8.84955 14.2609
rtibia 39.7875
rfoot -20.6687 -19.8582
rtoes -4.46352
lfemur -19.565 -2.95316 -22.9765
ltibia 30.8301
lfoot -11.7519 3.38634
ltoes -17.4776
1113
root -0.53962 17.702 -1.45674 2.7884 10.7984 6.40121
lowerback 10.1431 4.78101 1.61804
upperback 6.35929 6.48853 0.0743136
thorax 1.13178 3.30929 -1.39128
lowerneck 4.60618 -9.90661 -4.37182
upperneck 4.10094 -13.3616 2.02547
head 0.963952 -6.70709 1.35849
rclavicle -1.31198e-014 -2.54444e-014
rhumerus 48.413 -9.0162 -7.04443
rradius 54.1698
rwrist -27.072
rhand 5.38712 9.89566
rfingers 7.12502
rthumb 30.7391 -17.5552
lclavicle -1.31198e-014 -2.54444e-014
lhumerus 49.0219 25.0621 -2.38379
lradius 77.4474
lwrist 30.5534
lhand 13.028 25.1944
lfingers 7.12502
lthumb 37.9923 50.9957
rfemur -20.0632 -8.46137 14.1278
rtibia 39.2071
rfoot -20.3105 -19.6726
rtoes -4.78845
lfemur -19.1252 -2.77607 -23.0867
ltibia 30.3696
lfoot -11.6881 3.73015
ltoes -17.3835
1114
root -0.502919 17.7228 -1.46153 2.74066 10.1374 6.25852
lowerback 10.1119 4.716 1.86792
upperback 6.26108 6.42065 0.22184
thorax 1.05408 3.27658 -1.37422
lowerneck 4.61365 -9.80373 -4.16418
upperneck 4.0775 -13.2052 1.5052
head 0.896093 -6.62742 1.17083
rclavicle -4.05521e-014 6.36111e-015
rhumerus 48.7188 -8.84956 -7.16436
rradius 54.2459
rwrist -27.2051
rhand 5.31656 9.5241
rfingers 7.12502
rthumb 30.6719 -17.9394
lclavicle -4.05521e-014 6.36111e-015
lhumerus 49.5791 25.1916 -2.25083
lradius 76.752
lwrist 30.4667
lhand 12.4675 24.9319
lfingers 7.12502
lthumb 37.4627 50.8753
rfemur -19.8978 -8.02919 14.1571
rtibia 38.6432
rfoot -19.7595 -19.6147
rtoes -5.7832
lfemur -18.8292 -2.64288 -23.0483
ltibia 30.0051
lfoot -11.6198 4.22265
ltoes -17.4163
1115
root -0.463772 17.7415 -1.46418 2.73143 9.43015 6.21397
lowerback 9.99188 4.64715 1.95033
upperback 6.23164 6.33236 0.383982
thorax 1.07519 3.2304 -1.23715
lowerneck 4.43241 -9.68294 -4.06769
upperneck 4.13397 -13.0242 1.00974
head 0.894632 -6.53724 0.995907
rclavicle -1.03766e-013 -1.11319e-014
rhumerus 49.1294 -8.77752 -7.32128
rradius 54.3674
rwrist -27.311
rhand 5.42662 9.28008
rfingers 7.12502
rthumb 30.7768 -18.1637
lclavicle -1.03766e-013 -1.11319e-014
lhumerus 49.9809 25.4572 -2.06934
lradius 76.1643
lwrist 30.3272
lhand 12.1627 24.7863
lfingers 7.12502
lthumb 37.1746 50.8054
rfemur -19.7638 -7.66086 14.0691
rtibia 38.1023
rfoot -19.2138 -19.4564
rtoes -6.64122
lfemur -18.6185 -2.51653 -23.1213
ltibia 29.7803
lfoot -11.7081 4.72125
ltoes -16.9536
1116
root -0.423718 17.7568 -1.46905 2.7241 8.7133 6.07252
lowerback 9.86871 4.56903 2.14005
upperback 6.24086 6.23942 0.557865
thorax 1.14921 3.18571 -1.14395
lowerneck 4.04202 -9.52087 -3.98803
upperneck 4.29339 -12.7819 0.559151
head 0.963666 -6.41803 0.82413
rclavicle -3.49861e-014 1.27222e-014
rhumerus 49.5103 -8.79142 -7.44498
rradius 54.5067
rwrist -27.4242
rhand 5.35406 9.14513
rfingers 7.12502
rthumb 30.7076 -18.3117
lclavicle -3.49861e-014 1.27222e-014
lhumerus 50.358 25.7774 -1.90291
lradius 75.6167
lwrist 30.0489
lhand 12.0473 24.8012
lfingers 7.12502
lthumb 37.0655 50.8487
rfemur -19.6745 -7.26708 14.092
rtibia 37.5969
rfoot -18.7572 -19.2787
rtoes -7.27966
lfemur -18.4932 -2.3737 -23.0986
ltibia 29.6429
lfoot -11.7483 5.26291
ltoes -17.5356
